<?xml version="1.0" standalone="no"?>
<!DOCTYPE svg PUBLIC "-//W3C//DTD SVG 20010904//EN"
 "http://www.w3.org/TR/2001/REC-SVG-20010904/DTD/svg10.dtd">
<svg version="1.0" xmlns="http://www.w3.org/2000/svg"
 width="512.000000pt" height="512.000000pt" viewBox="0 0 512.000000 512.000000"
 preserveAspectRatio="xMidYMid meet">

<g transform="translate(0.000000,512.000000) scale(0.100000,-0.100000)"
fill="#000000" stroke="none">
<path d="M565 4151 c-90 -22 -173 -90 -215 -176 -33 -69 -34 -199 -2 -265 34
-71 75 -113 144 -151 l63 -34 2005 0 2005 0 50 25 c64 31 124 91 155 155 35
72 35 198 0 270 -31 64 -91 124 -155 155 l-50 25 -1985 2 c-1092 0 -1998 -2
-2015 -6z"/>
<path d="M565 2871 c-90 -22 -173 -90 -215 -176 -35 -73 -35 -199 0 -270 31
-64 91 -124 155 -155 l50 -25 2005 0 2005 0 50 25 c64 31 124 91 155 155 35
72 35 198 0 270 -31 64 -91 124 -155 155 l-50 25 -1985 2 c-1092 0 -1998 -2
-2015 -6z"/>
<path d="M540 1583 c-141 -49 -229 -182 -218 -326 10 -115 79 -216 183 -267
l50 -25 2005 0 2005 0 50 25 c64 31 124 91 155 155 35 72 35 198 0 270 -31 64
-91 124 -155 155 l-50 25 -1990 2 c-1790 2 -1995 1 -2035 -14z"/>
</g>
</svg>
